<svg width="135" height="135" viewBox="0 0 135 135" fill="none" xmlns="http://www.w3.org/2000/svg">
<path d="M112.5 112.5H22.5C16.4842 112.68 11.4548 107.962 11.25 101.947V33.0467C11.4548 27.0325 16.4851 22.3166 22.5 22.4998H112.5C118.515 22.3166 123.545 27.0325 123.75 33.0467V101.953C123.542 107.966 118.514 112.68 112.5 112.5ZM22.5 33.7498V101.188L112.5 101.25V33.8117L22.5 33.7498ZM75.5438 89.9998H33.75C34.1636 85.3426 36.3675 81.0275 39.8981 77.9623C43.829 74.0626 49.1108 71.8266 54.6469 71.7185C60.1829 71.8266 65.4647 74.0626 69.3956 77.9623C72.9253 81.0282 75.129 85.343 75.5438 89.9998ZM101.25 84.3748H84.375V73.1248H101.25V84.3748ZM54.6469 67.4998C51.6323 67.6045 48.7095 66.453 46.5766 64.32C44.4437 62.1871 43.2921 59.2644 43.3969 56.2498C43.2938 53.2357 44.4459 50.3139 46.5785 48.1814C48.711 46.0489 51.6328 44.8967 54.6469 44.9998C57.661 44.8967 60.5827 46.0489 62.7153 48.1814C64.8478 50.3139 65.9999 53.2357 65.8969 56.2498C66.0016 59.2644 64.85 62.1871 62.7171 64.32C60.5842 66.453 57.6615 67.6045 54.6469 67.4998ZM101.25 61.8748H78.75V50.6248H101.25V61.8748Z" fill="#F9F9F9"/>
</svg>
